<svg width="900" height="450" viewBox="0 0 9000 4500" xmlns="http://www.w3.org/2000/svg" xmlns:xlink="http://www.w3.org/1999/xlink"><rect width="100%" height="100%" fill="#c8313e"/><rect y="3000" width="100%" height="1500" fill="#4aa657"/><rect width="1000" height="100%" fill="#fff"/><g id="b"><path id="a" d="M173.9 0h130.4v73.77h43.48v73.77h43.48v73.77h43.48v73.77h43.48v73.77h-43.48v73.77h-43.48v73.77h-43.48v73.77H304.3v73.77h-43.48v73.77h-43.48v-73.77h-43.48v-73.77h-43.48v-73.77H86.9v-73.77H43.42v-73.77H-.06v-73.77h43.48v-73.77H86.9v-73.77h43.48V73.77h43.48zm43.48 147.5h43.48v73.77h43.48v73.77h43.48v73.77h-43.48v73.77h-43.48v73.77h-43.48v-73.77H173.9v-73.77h-43.48v-73.77h43.48v-73.77h43.48zm0 147.5h43.48v73.77h-43.48zM-.02 73.7h43.48v73.77H-.02zm0 442.6h43.48v73.77H-.02zM478.18-.1h26.09v147.5h-26.09zm0 516.4h26.09v147.5h-26.09zM86.88 663.8h43.48v73.77h43.48v73.77h43.48v73.77h-43.48v73.77h-43.48v73.77H86.88v-73.77H43.4v-73.77H-.08v-73.77H43.4v-73.77h43.48zm0 147.5h43.48v73.77H86.88zm260.9-147.5h43.48v73.77h43.48v73.77h43.48v73.77h-43.48v73.77h-43.48v73.77h-43.48v-73.77H304.3v-73.77h-43.48v-73.77h43.48v-73.77h43.48zm0 147.5h43.48v73.77h-43.48zM-.02 1106.4h43.48v73.77H-.02zm478.2-73.77h26.09v147.5h-26.09zm-478.2 295.1h43.48v-73.77h43.48v-73.77h43.48v-73.77h43.48v-73.77h43.48v-73.77h43.48v73.77h43.48v73.77h43.48v73.77h43.48v73.77h43.48v73.77h43.48v73.77h26.09v295.1h-26.09v73.77h-43.48v73.77H391.3v73.77h-43.48v73.77h-43.48v73.77h-43.48v191.8h-86.95v-44.26h-43.48v-73.77H86.95v-73.77H43.47v-73.77H-.01v-221.3h43.48v73.77h43.48v73.77h43.48v73.77h43.48v-73.77h43.48v-73.77h43.48v-73.77h43.48v-73.77h43.48v-73.77h43.48v-73.77h-43.48v-73.77h-43.48v-73.77h-130.4v73.77h86.95v73.77h-43.48v73.77h-43.48v73.77h-43.48v-73.77H86.98v-73.77H43.5v-73.77H.02zm0 295.1h43.48v73.77H-.02zm478.2 221.3h26.09v73.77h-26.09zm-86.95 147.5h43.48v73.77h43.48v73.77h26.09v118h-26.09v-44.26h-43.48v-73.77h-43.48zm-86.95 221.3h43.48v44.26h-43.48z" fill="#c8313e" fill-rule="evenodd"/><use transform="matrix(-1 0 0 1 1000 0)" xlink:href="#a"/></g><use transform="matrix(1 0 0 -1 0 4500)" xlink:href="#b"/></svg>